<?xml version="1.0" encoding="UTF-8"?>
<svg width="394px" height="246px" viewBox="0 0 394 246" version="1.1" xmlns="http://www.w3.org/2000/svg" xmlns:xlink="http://www.w3.org/1999/xlink">
    <!-- Generator: Sketch 51.2 (57519) - http://www.bohemiancoding.com/sketch -->
    <title>Group</title>
    <desc>Created with Sketch.</desc>
    <defs>
        <linearGradient x1="97.5305526%" y1="49.9995706%" x2="-1.90460231%" y2="49.9995706%" id="linearGradient-1">
            <stop stop-color="#FFFFFF" offset="0%"></stop>
            <stop stop-color="#FFFFFF" offset="100%"></stop>
        </linearGradient>
        <linearGradient x1="100.826221%" y1="50.0001284%" x2="2.66540083%" y2="50.0001284%" id="linearGradient-2">
            <stop stop-color="#FFFFFF" offset="0%"></stop>
            <stop stop-color="#FFFFFF" offset="100%"></stop>
        </linearGradient>
    </defs>
    <g id="logo" stroke="none" stroke-width="1" fill="none" fill-rule="evenodd">
        <g id="MEDIAINFINI" fill-rule="nonzero">
            <g id="Group">
                <path d="M277.207854,108.036826 L116.389192,15.0946397 C86.9804747,-1.90226721 58.3876162,-4.09535223 35.872904,8.91675304 C13.3581919,21.9278623 0.959131313,47.8136356 0.959131313,81.8054575 L0.959131313,163.650753 C0.959131313,197.743166 13.3681414,223.690688 35.9027525,236.713749 C45.5597323,242.294065 56.3310556,245.068785 67.8028232,245.068785 C82.9479444,245.068785 99.3128737,240.230453 115.925545,230.628486 L197,183.772955 L163.10804,164.185579 L98.9795657,201.246923 C80.9759545,211.652623 64.1613081,213.868615 52.8487323,207.332186 C41.4107929,200.721061 34.8510909,184.799781 34.8510909,163.649757 L34.8510909,81.8044615 C34.8510909,60.7540324 41.4008434,44.895498 52.8188838,38.2963239 C64.2369242,31.6981457 81.2316566,33.9499919 99.4422172,44.4742105 L260.260879,137.417393 C268.365737,142.103344 278.730126,139.322648 283.410369,131.208632 C288.090611,123.095611 285.313707,112.720785 277.207854,108.036826 Z" id="Shape" fill="url(#linearGradient-1)"></path>
                <polygon id="Shape" fill="#DEDEDE" points="163.10804 164.185579 129.216081 183.772955 163.10804 203.360332 197 183.772955"></polygon>
                <path d="M358.096253,8.74046964 C335.688995,-4.20889069 307.267268,-2.04867206 278.072465,14.8257328 L197,61.6812632 L230.890965,81.2686397 L295.018444,44.2072955 C313.022056,33.8015951 329.834712,31.5826154 341.149278,38.1230283 C352.586222,44.7331579 359.147914,60.6554332 359.147914,81.8054575 L359.147914,163.650753 C359.147914,184.700186 352.600152,200.558721 341.181116,207.156899 C329.762081,213.755077 312.768343,211.505223 294.555793,200.980008 L133.736136,108.036826 C125.630283,103.350874 115.266889,106.131571 110.587641,114.245587 C105.908394,122.358607 108.685298,132.733433 116.790157,137.417393 L277.609813,230.360575 C294.364763,240.042219 310.851076,244.921385 326.102657,244.920389 C337.623177,244.920389 348.439273,242.135709 358.127096,236.53647 C380.641808,223.52536 393.041864,197.639587 393.039874,163.648761 L393.039874,81.8034656 C393.038879,47.7110526 380.630864,21.7635304 358.096253,8.74046964 Z" id="Shape" fill="url(#linearGradient-2)"></path>
                <polygon id="Shape" fill="#DFDFDF" points="264.782924 61.6812632 230.89196 42.0938866 197 61.6812632 230.890965 81.2686397"></polygon>
            </g>
        </g>
    </g>
</svg>